# xmcd CD database file
#
# Track frame offsets:
#	150
#	11272
#	24142
#	42605
#	55215
#	76115
#	93862
#	106527
#	117935
#	136602
#	151860
#	164595
#	182222
#
# Disc length: 2641 seconds
#
# Revision: 5
# Processed by: cddbd v1.5.2PL0 Copyright (c) Steve Scherf et al.
# Submitted via: CDex 1.50
#
DISCID=8b0a4f0d
DTITLE=Shirley Bassey - The Diamond Collection [CD1]
DYEAR=1998
DGENRE=Easy Listening
TTITLE0=S'wonderful
TTITLE1=Goldfinger
TTITLE2=Diamonds Are Forever
TTITLE3=Nobody Does It Like Me
TTITLE4=Crazy
TTITLE5=Never, Never, Never
TTITLE6=Kiss Me, Honey, Honey
TTITLE7=Bye Bye Blackbird
TTITLE8=Try A Little Tenderness
TTITLE9=As Long As He Needs Me
TTITLE10=Big Spender
TTITLE11=Lady Is A Tramp
TTITLE12=New York, New York
EXTD=YEAR: 1998
EXTT0=
EXTT1=
EXTT2=
EXTT3=
EXTT4=
EXTT5=
EXTT6=
EXTT7=
EXTT8=
EXTT9=
EXTT10=
EXTT11=
EXTT12=
PLAYORDER=
